<svg width="261" height="154" viewBox="0 0 261 154" fill="none" xmlns="http://www.w3.org/2000/svg">
<path d="M43.6741 152.494H22.7972C14.1642 152.494 9.58784 142.29 15.3296 135.843L69.2413 75.3105C71.1388 73.18 73.861 71.9614 76.714 71.9614H136.954C140.102 71.9614 143.067 70.4786 144.956 67.9593L177.807 24.1353C179.695 21.616 182.66 20.1332 185.808 20.1332H217.607C220.887 20.1332 223.959 18.5242 225.827 15.8275L226.752 14.4921C231.175 8.10825 240.868 8.98146 244.079 16.0528L254.084 38.0932C257.089 44.7138 252.249 52.2268 244.978 52.2268H199.145C195.891 52.2268 192.842 53.8094 190.968 56.4693L159.886 100.61C158.013 103.27 154.963 104.852 151.71 104.852H95.5941C92.7655 104.852 90.0693 106.05 88.1733 108.149L51.0949 149.197C49.1989 151.296 46.5026 152.494 43.6741 152.494Z" fill="#28456D"/>
<path d="M93.1505 118.726L76.6943 136.999C70.8996 143.433 75.466 153.691 84.1252 153.691H249.302C254.825 153.691 259.302 149.214 259.302 143.691V71.7953C259.302 66.2725 254.825 61.7953 249.302 61.7953H205.526C202.268 61.7953 199.214 63.3823 197.342 66.0485L165.66 111.164C163.788 113.831 160.734 115.418 157.477 115.418H100.581C97.7475 115.418 95.0468 116.62 93.1505 118.726Z" fill="url(#paint0_linear_8_6375)"/>
<defs>
<linearGradient id="paint0_linear_8_6375" x1="168.053" y1="123.59" x2="255.539" y2="73.9947" gradientUnits="userSpaceOnUse">
<stop stop-color="#5385D0"/>
<stop offset="1" stop-color="#375F93"/>
</linearGradient>
</defs>
</svg>
