<svg width="305" height="305" viewBox="0 0 305 305" fill="none" xmlns="http://www.w3.org/2000/svg">
<path d="M233.379 0H71.6214C32.066 0 0 32.0639 0 71.6167V233.363C0 272.916 32.066 304.98 71.6214 304.98H233.379C272.934 304.98 305 272.916 305 233.363V71.6167C305 32.0639 272.934 0 233.379 0Z" fill="#4378BC"/>
<path d="M0 229.865V233.363C0 272.913 32.0688 304.98 71.6214 304.98H76.6008V210.378C76.6008 210.378 57.4043 220.716 0 229.865Z" fill="#FFF8EE"/>
<path d="M116.134 197.662V304.98H190.562V164.329C190.562 164.329 155.677 184.947 116.134 197.662Z" fill="#FFF8EE"/>
<path d="M229.179 142.405V304.99H233.379C272.931 304.99 305 272.923 305 233.373V92.41C305 92.41 285.462 115.22 229.179 142.405Z" fill="#FFF8EE"/>
<path d="M23 182.845V199C23 199 140.595 172.94 220.495 100.227L231.349 108.532C236.749 112.933 243.424 112.96 244.163 105.091L256.524 41.6073C258.199 35.0989 255.49 32.6361 247.853 34.7255L189.073 50.7031C181.891 52.2501 179.164 56.8024 182.648 60.9013L191.577 73.2335C191.577 73.2335 144.106 132.867 23.0089 182.836L23 182.845Z" fill="#FFF8EE"/>
</svg>
