<svg width="373" height="165" viewBox="0 0 373 165" fill="none" xmlns="http://www.w3.org/2000/svg">
<path d="M323 98V130.849H252.89L246.74 155H200" stroke="#20315A" stroke-width="19"/>
<path d="M59.0348 91.3C59.0348 95.1667 58.0348 98.8333 56.0348 102.3C54.1014 105.767 51.0681 108.6 46.9348 110.8C42.8681 112.933 37.5681 114 31.0348 114C27.7681 114 24.9014 113.833 22.4348 113.5C20.0348 113.233 17.7681 112.767 15.6348 112.1C13.5014 111.433 11.3014 110.567 9.03477 109.5V92.3C12.9014 94.2333 16.8014 95.7333 20.7348 96.8C24.6681 97.8 28.2348 98.3 31.4348 98.3C33.3681 98.3 34.9348 98.0667 36.1348 97.6C37.3348 97.1333 38.2348 96.5 38.8348 95.7C39.4348 94.9 39.7348 94 39.7348 93C39.7348 91.7333 39.3014 90.6667 38.4348 89.8C37.5681 88.9333 36.2014 88.0333 34.3348 87.1C32.4681 86.1667 29.9681 85 26.8348 83.6C24.1681 82.4 21.7681 81.1333 19.6348 79.8C17.5014 78.4667 15.6681 76.9667 14.1348 75.3C12.6681 73.6333 11.5348 71.7 10.7348 69.5C9.93477 67.2333 9.53477 64.5667 9.53477 61.5C9.53477 56.9 10.6681 53.0667 12.9348 50C15.2014 46.8667 18.3348 44.5333 22.3348 43C26.4014 41.4 31.1014 40.6 36.4348 40.6C41.1014 40.6 45.3014 41.1333 49.0348 42.2C52.7681 43.2 56.1014 44.3667 59.0348 45.7L53.1348 60.6C50.0681 59.2 47.0348 58.1 44.0348 57.3C41.1014 56.4333 38.3681 56 35.8348 56C34.1681 56 32.8014 56.2 31.7348 56.6C30.6681 57 29.8681 57.5667 29.3348 58.3C28.8681 58.9667 28.6348 59.7333 28.6348 60.6C28.6348 61.7333 29.0681 62.7333 29.9348 63.6C30.8014 64.4667 32.2348 65.4333 34.2348 66.5C36.3014 67.5 39.1014 68.8 42.6348 70.4C46.1014 71.9333 49.0348 73.6333 51.4348 75.5C53.9014 77.3 55.7681 79.4667 57.0348 82C58.3681 84.4667 59.0348 87.5667 59.0348 91.3ZM99.5496 113H80.2496V57.4H62.8496V41.6H116.95V57.4H99.5496V113ZM167.532 113H125.132V41.6H167.532V57.1H144.432V68.3H165.832V83.8H144.432V97.3H167.532V113ZM202.714 41.6C211.781 41.6 218.548 43.5667 223.014 47.5C227.548 51.4333 229.814 57.0333 229.814 64.3C229.814 67.5667 229.348 70.7 228.414 73.7C227.481 76.6333 225.948 79.3 223.814 81.7C221.748 84.0333 218.981 85.9 215.514 87.3C212.048 88.6333 207.781 89.3 202.714 89.3H197.314V113H178.014V41.6H202.714ZM202.314 57.2H197.314V73.6H201.114C202.781 73.6 204.314 73.3333 205.714 72.8C207.181 72.2 208.348 71.2667 209.214 70C210.081 68.6667 210.514 66.9333 210.514 64.8C210.514 62.5333 209.848 60.7 208.514 59.3C207.181 57.9 205.114 57.2 202.314 57.2ZM299.898 84.6C299.898 90.6 298.765 95.8 296.498 100.2C294.231 104.6 290.798 108 286.198 110.4C281.665 112.8 275.965 114 269.098 114C259.231 114 251.698 111.5 246.498 106.5C241.365 101.433 238.798 94.2667 238.798 85V41.6H258.198V83.5C258.198 88.5667 259.131 92.2333 260.998 94.5C262.931 96.7667 265.731 97.9 269.398 97.9C272.065 97.9 274.198 97.4 275.798 96.4C277.465 95.4 278.665 93.8333 279.398 91.7C280.198 89.5667 280.598 86.8 280.598 83.4V41.6H299.898V84.6ZM337.582 41.6C346.648 41.6 353.415 43.5667 357.882 47.5C362.415 51.4333 364.682 57.0333 364.682 64.3C364.682 67.5667 364.215 70.7 363.282 73.7C362.348 76.6333 360.815 79.3 358.682 81.7C356.615 84.0333 353.848 85.9 350.382 87.3C346.915 88.6333 342.648 89.3 337.582 89.3H332.182V113H312.882V41.6H337.582ZM337.182 57.2H332.182V73.6H335.982C337.648 73.6 339.182 73.3333 340.582 72.8C342.048 72.2 343.215 71.2667 344.082 70C344.948 68.6667 345.382 66.9333 345.382 64.8C345.382 62.5333 344.715 60.7 343.382 59.3C342.048 57.9 339.982 57.2 337.182 57.2Z" fill="#20315A"/>
</svg>
